<svg width="80" height="36" viewBox="0 0 80 36" fill="none" xmlns="http://www.w3.org/2000/svg">
<path d="M0 6.95574H4.2941L7.91393 20.6898L11.3563 6.95574H15.4375L18.8089 20.6898L22.6062 6.95574H26.7228L20.9382 25.2678H16.786L13.3437 11.6757L9.93677 25.2678H5.67815L0 6.95574Z" fill="white"/>
<path d="M46.3238 0V25.2678H42.5266V22.7481C41.3673 24.7591 39.4154 25.7646 36.671 25.7646C34.0921 25.7646 32.0338 24.8892 30.496 23.1385C28.9818 21.3877 28.2247 19.0336 28.2247 16.0763C28.2247 13.1426 28.97 10.8122 30.4605 9.08505C31.9746 7.33428 33.9975 6.4589 36.529 6.4589C39.1078 6.4589 41.0479 7.41709 42.3491 9.33347V0H46.3238ZM37.2743 9.72384C35.7364 9.72384 34.518 10.2917 33.6189 11.4273C32.7436 12.5393 32.3059 14.0653 32.3059 16.0053C32.3059 18.0163 32.7554 19.6015 33.6544 20.7607C34.5771 21.92 35.8311 22.4997 37.4162 22.4997C39.0014 22.4997 40.2316 21.9319 41.107 20.7962C42.0061 19.6606 42.4556 18.0873 42.4556 16.0763C42.4556 14.0653 41.9942 12.5038 41.0715 11.3918C40.1725 10.2798 38.9067 9.72384 37.2743 9.72384Z" fill="white"/>
<path d="M64.825 12.279H60.9567C60.7201 10.339 59.3952 9.36895 56.982 9.36895C55.941 9.36895 55.1366 9.55823 54.5688 9.93677C54.001 10.3153 53.7171 10.8358 53.7171 11.4983C53.7171 11.7112 53.7289 11.9005 53.7525 12.0661C53.7999 12.2317 53.8708 12.3855 53.9655 12.5274C54.0838 12.6457 54.1784 12.7522 54.2494 12.8468C54.344 12.9415 54.4978 13.0361 54.7107 13.1307C54.9237 13.2254 55.0893 13.3082 55.2076 13.3792C55.3495 13.4265 55.5743 13.4974 55.8819 13.5921C56.1894 13.6631 56.426 13.7222 56.5916 13.7695C56.7809 13.8168 57.0766 13.8878 57.4788 13.9825C57.881 14.0534 58.1886 14.1126 58.4015 14.1599C59.3242 14.3728 59.9867 14.5384 60.3889 14.6567C60.8148 14.7514 61.4181 14.9643 62.1988 15.2955C63.0032 15.6031 63.5947 15.9343 63.9732 16.2892C64.3518 16.6204 64.6948 17.0936 65.0024 17.7087C65.3336 18.3002 65.4992 18.9863 65.4992 19.7671C65.4992 21.6125 64.7776 23.0793 63.3344 24.1676C61.8912 25.256 59.9512 25.8001 57.5143 25.8001C54.9118 25.8001 52.9127 25.256 51.5168 24.1676C50.1209 23.0793 49.3756 21.4942 49.281 19.4122H53.1492C53.3622 21.7071 54.8409 22.8546 57.5853 22.8546C58.7683 22.8546 59.7146 22.618 60.4244 22.1448C61.1578 21.648 61.5245 20.9973 61.5245 20.1929C61.5245 19.7907 61.4299 19.4477 61.2406 19.1638C61.075 18.8799 60.7911 18.6433 60.3889 18.454C59.9867 18.2411 59.5963 18.0873 59.2178 17.9927C58.8629 17.8744 58.3779 17.7442 57.7627 17.6023C57.6681 17.5786 57.5971 17.5668 57.5498 17.5668C57.5025 17.5431 57.4434 17.5313 57.3724 17.5313C57.3014 17.5076 57.2304 17.484 57.1594 17.4603C54.557 16.8215 52.9008 16.3247 52.1911 15.9698C50.5113 15.1654 49.6714 13.8287 49.6714 11.9596C49.6714 10.2325 50.3338 8.88395 51.6587 7.91393C52.9836 6.92025 54.8172 6.42341 57.1594 6.42341C59.407 6.42341 61.2406 6.90842 62.6602 7.87844C64.1034 8.84846 64.825 10.3153 64.825 12.279Z" fill="white"/>
<path d="M75.6549 5.60156C76.3847 5.60156 77.0973 5.78978 77.7925 6.16622C78.4878 6.53882 79.0294 7.07468 79.4174 7.77378C79.8053 8.46905 79.9993 9.19504 79.9993 9.95176C79.9993 10.7008 79.8073 11.421 79.4231 12.1125C79.0429 12.8039 78.507 13.3417 77.8156 13.7258C77.128 14.1061 76.4078 14.2962 75.6549 14.2962C74.902 14.2962 74.1799 14.1061 73.4884 13.7258C72.8008 13.3417 72.265 12.8039 71.8809 12.1125C71.4967 11.421 71.3047 10.7008 71.3047 9.95176C71.3047 9.19504 71.4987 8.46905 71.8866 7.77378C72.2784 7.07468 72.822 6.53882 73.5172 6.16622C74.2125 5.78978 74.9251 5.60156 75.6549 5.60156ZM75.6549 6.32179C75.0441 6.32179 74.4487 6.47929 73.8687 6.79427C73.2925 7.10541 72.8412 7.55291 72.5147 8.13678C72.1882 8.71681 72.0249 9.3218 72.0249 9.95176C72.0249 10.5779 72.1843 11.179 72.5032 11.7552C72.8258 12.3276 73.2752 12.7751 73.8514 13.0977C74.4276 13.4166 75.0288 13.576 75.6549 13.576C76.281 13.576 76.8822 13.4166 77.4584 13.0977C78.0345 12.7751 78.482 12.3276 78.8009 11.7552C79.1197 11.179 79.2791 10.5779 79.2791 9.95176C79.2791 9.3218 79.1158 8.71681 78.7893 8.13678C78.4667 7.55291 78.0153 7.10541 77.4353 6.79427C76.8553 6.47929 76.2618 6.32179 75.6549 6.32179ZM73.7477 12.3545V7.67583H75.3553C75.9046 7.67583 76.3021 7.72001 76.548 7.80835C76.7938 7.89286 76.9897 8.04267 77.1357 8.25778C77.2817 8.47289 77.3546 8.70144 77.3546 8.94344C77.3546 9.28531 77.2317 9.58301 76.9859 9.83653C76.7439 10.09 76.4212 10.2322 76.0179 10.2629C76.1831 10.332 76.3156 10.4146 76.4155 10.5107C76.6037 10.695 76.8341 11.0043 77.1069 11.4383L77.6773 12.3545H76.7554L76.3405 11.6169C76.014 11.0369 75.7509 10.6739 75.5512 10.5279C75.4129 10.4204 75.2112 10.3666 74.9462 10.3666H74.5025V12.3545H73.7477ZM74.5025 9.72129H75.4187C75.8566 9.72129 76.1542 9.65599 76.3117 9.52539C76.4731 9.39478 76.5537 9.22193 76.5537 9.00682C76.5537 8.86854 76.5153 8.74562 76.4385 8.63806C76.3617 8.52666 76.2541 8.44408 76.1158 8.3903C75.9814 8.33652 75.7298 8.30963 75.361 8.30963H74.5025V9.72129Z" fill="white"/>
<rect x="1" y="30.3994" width="66" height="5" fill="white"/>
<rect x="71" y="30.3994" width="9" height="5" fill="white"/>
</svg>
