<svg width="148" height="57" viewBox="0 0 148 57" className="logoSvg" fill="#1f1f20" xmlns="http://www.w3.org/2000/svg">
<path d="M108.054 52.4499C106.957 52.4499 106.126 52.2602 105.561 51.8809C105.002 51.4947 104.723 50.9326 104.723 50.1946V50.0911H105.757V50.1946C105.757 51.0774 106.54 51.5188 108.106 51.5188C108.802 51.5188 109.333 51.4326 109.699 51.2602C110.064 51.0877 110.247 50.8326 110.247 50.4946V50.4118C110.247 50.1222 110.13 49.9049 109.895 49.7601C109.668 49.6152 109.261 49.5049 108.675 49.429L107.133 49.2221C106.381 49.1256 105.816 48.9325 105.436 48.6428C105.064 48.3462 104.878 47.9496 104.878 47.4531V47.3496C104.878 46.7427 105.147 46.2703 105.685 45.9323C106.223 45.5875 106.981 45.415 107.961 45.415C109.002 45.415 109.792 45.6013 110.33 45.9737C110.875 46.3461 111.147 46.8875 111.147 47.5979V47.7014H110.123V47.5979C110.123 46.7634 109.402 46.3461 107.961 46.3461C107.299 46.3461 106.792 46.4323 106.44 46.6048C106.095 46.7703 105.923 47.0117 105.923 47.3289V47.4117C105.923 47.6669 106.033 47.8634 106.254 48.0014C106.474 48.1393 106.843 48.2428 107.361 48.3117L108.913 48.5083C109.733 48.6118 110.333 48.8118 110.713 49.1083C111.099 49.4049 111.292 49.8256 111.292 50.3705V50.4739C111.292 51.1015 111.013 51.5878 110.454 51.9326C109.895 52.2775 109.095 52.4499 108.054 52.4499Z"/>
<path d="M111.822 46.4599V45.5392H118.722V46.4599H115.784V52.3257H114.76V46.4599H111.822Z"/>
<path d="M122.947 52.4499C122.306 52.4499 121.737 52.3257 121.24 52.0774C120.75 51.8223 120.371 51.4671 120.102 51.0119C119.833 50.5567 119.699 50.0291 119.699 49.429V45.5392H120.733V49.4497C120.733 50.0842 120.93 50.5843 121.323 50.9498C121.716 51.3084 122.257 51.4878 122.947 51.4878C123.637 51.4878 124.178 51.3084 124.571 50.9498C124.971 50.5843 125.171 50.0842 125.171 49.4497V45.5392H126.206V49.429C126.206 50.0291 126.068 50.5567 125.792 51.0119C125.523 51.4671 125.144 51.8223 124.654 52.0774C124.164 52.3257 123.595 52.4499 122.947 52.4499Z"/>
<path d="M131.182 45.5392C132.409 45.5392 133.34 45.822 133.975 46.3875C134.616 46.953 134.937 47.7772 134.937 48.86V49.0152C134.937 50.098 134.616 50.9222 133.975 51.4878C133.34 52.0464 132.409 52.3257 131.182 52.3257H128.006V45.5392H131.182ZM131.182 51.405C132.989 51.405 133.892 50.6119 133.892 49.0256V48.8497C133.892 48.0634 133.661 47.4703 133.199 47.0703C132.744 46.6634 132.068 46.4599 131.171 46.4599H129.04V51.405H131.182Z"/>
<path d="M137.659 45.5392V52.3257H136.635V45.5392H137.659Z"/>
<path d="M143.234 52.4499C142.455 52.4499 141.772 52.3085 141.185 52.0257C140.599 51.7429 140.147 51.3429 139.83 50.8257C139.513 50.3084 139.354 49.7015 139.354 49.0049V48.8704C139.354 48.1738 139.513 47.5669 139.83 47.0496C140.147 46.5254 140.599 46.122 141.185 45.8392C141.772 45.5564 142.455 45.415 143.234 45.415C144.013 45.415 144.693 45.5564 145.272 45.8392C145.858 46.122 146.31 46.5254 146.627 47.0496C146.944 47.5669 147.103 48.1738 147.103 48.8704V49.0049C147.103 49.7015 146.944 50.3084 146.627 50.8257C146.31 51.3429 145.858 51.7429 145.272 52.0257C144.693 52.3085 144.013 52.4499 143.234 52.4499ZM143.234 51.4878C144.124 51.4878 144.817 51.2705 145.313 50.836C145.81 50.4015 146.058 49.798 146.058 49.0256V48.86C146.058 48.0807 145.81 47.4738 145.313 47.0393C144.817 46.5979 144.124 46.3772 143.234 46.3772C142.344 46.3772 141.648 46.5979 141.144 47.0393C140.648 47.4738 140.399 48.0807 140.399 48.86V49.0256C140.399 49.798 140.648 50.4015 141.144 50.836C141.648 51.2705 142.344 51.4878 143.234 51.4878Z"/>
<path d="M7.99489 12.8213V41.8732H0V12.8213H7.99489Z"/>
<path d="M41.653 41.8732H33.5455V24.9263C33.5455 22.8619 33.2077 21.3042 32.532 20.2532C31.8564 19.1647 30.5427 18.6204 28.5909 18.6204C24.387 18.6204 22.2851 21.1728 22.2851 26.2775V41.8732H14.3465V12.8213H21.9472V16.8751C24.3495 13.6471 27.5587 12.0331 31.5749 12.0331C34.6903 12.0331 37.1488 12.9339 38.9505 14.7356C40.7521 16.5373 41.653 19.1084 41.653 22.449V41.8732Z"/>
<path d="M65.7375 12.8213H73.6761L63.8232 41.8732H54.8712L44.9057 12.8213H53.351L59.5443 32.6397L65.7375 12.8213Z"/>
<path d="M104.222 32.8649C103.321 35.9802 101.651 38.4012 99.2108 40.1278C96.8086 41.8544 93.9372 42.7177 90.5966 42.7177C86.13 42.7177 82.5267 41.3289 79.7866 38.5514C77.0841 35.7738 75.7329 32.0954 75.7329 27.5162C75.7329 23.012 77.1029 19.2961 79.8429 16.3684C82.5829 13.4407 86.0737 11.9768 90.3151 11.9768C94.7067 11.9768 98.1974 13.4782 100.787 16.481C103.377 19.4462 104.672 23.4812 104.672 28.5859V29.3741H83.8404C83.8779 31.889 84.4784 33.8032 85.642 35.117C86.8431 36.4307 88.5134 37.0875 90.6529 37.0875C93.468 37.0875 95.4386 35.68 96.5646 32.8649H104.222ZM96.5646 24.307C96.377 22.3927 95.7576 20.835 94.7067 19.6339C93.6557 18.3952 92.1918 17.7759 90.3151 17.7759C88.551 17.7759 87.0871 18.3577 85.9235 19.5213C84.76 20.6849 84.0656 22.2801 83.8404 24.307H96.5646Z"/>
<path d="M128.106 12.3146V19.6902C126.98 19.465 125.948 19.3524 125.009 19.3524C122.382 19.3524 120.449 20.1969 119.21 21.886C117.972 23.5375 117.352 25.7708 117.352 28.5859V41.8732H109.358V12.8213H116.958V18.17C118.873 14.1538 122.007 12.1457 126.361 12.1457C126.736 12.1457 127.318 12.202 128.106 12.3146Z"/>
<path d="M148 12.8213V18.2263H142.088V31.9077C142.088 32.771 142.107 33.4091 142.145 33.822C142.182 34.1974 142.313 34.5915 142.539 35.0043C142.764 35.4172 143.102 35.6987 143.552 35.8489C144.04 35.9615 144.716 36.0178 145.579 36.0178C146.555 36.0178 147.362 35.9803 148 35.9052V41.9858C146.048 42.1359 144.434 42.211 143.158 42.211C139.667 42.211 137.284 41.6105 136.008 40.4093C134.769 39.1707 134.15 36.806 134.15 33.3153V18.2263H129.308V12.8213H134.15V4.03821H142.088V12.8213H148Z"/>
<path d="M0 45.1847H7.99986V53.1846H0V45.1847Z"/>
</svg>
